<?xml version="1.0"?>
<svg width="680" height="670" xmlns="http://www.w3.org/2000/svg" xmlns:svg="http://www.w3.org/2000/svg" version="1.1">
 <g class="layer">
  <title>Layer 1</title>
  <g id="svg_19" transform="translate(14 0) matrix(1 0 0 1 -674 0)">
   <svg data-id="lg_q2YLupLETWFLL10B58" data-version="2" height="670" id="svg_20" transform="matrix(1 0 0 1 -660 0)" viewBox="0 0 652 670" width="2000" x="0" xml:space="preserve" y="0">
    <rect fill="transparent" height="100%" id="svg_21" width="100%"/>
    <rect fill="#eaf0ff" height="155.81" id="svg_22" stroke="#eaf0ff" stroke-width="8" transform="translate(326 335)scale(4.0123)" width="151.36" x="-75.68" y="-77.91"/>
    <path d="m440.04,382.18l-38.73,21.45a161.53,161.53 0 0 1 -78.02,20.16a161.57,161.57 0 0 1 -78.02,-20.16l-47.49,-26.31c0.59,22.04 -0.34,45.47 -9.32,64.15c-2.48,5.11 -7.44,9.72 -7.34,15.86c0.1,8.51 9.78,9.94 16.75,8.65c0,0 41.05,-7.88 97.87,47.8c5.64,5.54 11.2,10.74 18.85,13.45c14.96,5.3 26.09,-3.86 36.37,-13.55c6.99,-6.58 14.8,-12.29 22.64,-17.85c18.82,-13.3 42.71,-30.02 66.69,-30.42c0,0 30.93,6.75 12.93,-21.93c0,0 -8.24,-26.58 -13.18,-61.3m-305.72,-21.37l-9.02,53.99l0,71.98l36.02,0l0,-71.98l-9.02,-53.99l0,-49.84l-17.98,-9.99l0,59.83z" fill="#001f3f" id="svg_23"/>
    <path d="m558.17,248.02l-174.29,-96.54a124.94,124.94 0 0 0 -121.15,0l-174.32,96.54c-10.79,5.98 -10.79,21.58 0,27.57l45.9,25.41l0,-39.19l206.98,0l0,17.99l-188.99,0l0,31.17l110.42,61.16a125,125 0 0 0 121.16,0l174.29,-96.53c10.81,-6 10.81,-21.59 0,-27.58" fill="#001f3f" id="svg_24"/>
   </svg>
  </g>
 </g>
</svg>