<svg xmlns="http://www.w3.org/2000/svg" xmlns:svg="http://www.w3.org/2000/svg" width="796" height="186" version="1.1"><g class="layer" display="inline"><title>Layer 1</title><g id="svg_31" transform="translate(-3 0) matrix(1 0 0 1 -598.5 0)"><svg id="svg_32" width="2000" height="186" x="0" y="0" data-id="lg_q2YLupLETWFLL10B58" data-version="2" viewBox="0 0 797 186" xml:space="preserve"><rect id="svg_33" width="100%" height="100%" fill="transparent"/><rect id="svg_34" width="151.36" height="155.81" x="-75.68" y="-77.91" fill="#eaf0ff" stroke="#eaf0ff" stroke-width="8" transform="translate(96.35 93)scale(1.1112)"/><path id="svg_35" fill="#001f3f" d="m119.77,102.69l-7.96,4.4a33.17,33.17 0 0 1 -16.02,4.14a33.18,33.18 0 0 1 -16.02,-4.14l-9.75,-5.4c0.12,4.53 -0.07,9.34 -1.91,13.17c-0.51,1.05 -1.53,2 -1.51,3.26c0.02,1.74 2.01,2.04 3.44,1.77c0,0 8.43,-1.61 20.1,9.82c1.16,1.14 2.3,2.2 3.87,2.76c3.07,1.09 5.35,-0.79 7.47,-2.78c1.43,-1.35 3.03,-2.53 4.64,-3.67c3.87,-2.73 8.77,-6.16 13.7,-6.24c0,0 6.35,1.38 2.65,-4.51c0,0 -1.69,-5.45 -2.7,-12.58m-62.78,-4.39l-1.85,11.09l0,14.78l7.39,0l0,-14.78l-1.85,-11.09l0,-10.23l-3.69,-2.05l0,12.28z"/><path id="svg_36" fill="#001f3f" d="m144.02,75.14l-35.78,-19.82a25.65,25.65 0 0 0 -24.88,0l-35.8,19.82c-2.21,1.23 -2.21,4.43 0,5.66l9.43,5.22l0,-8.05l42.5,0l0,3.69l-38.8,0l0,6.4l22.67,12.56a25.67,25.67 0 0 0 24.87,0l35.79,-19.82c2.22,-1.23 2.22,-4.43 0,-5.66"/><rect id="svg_37" width="525.83" height="155.81" x="-262.92" y="-77.91" fill="none" stroke="#eaf0ff" stroke-width="8" transform="translate(492.59 93)scale(1.1112)"/><g id="svg_38" transform="translate(494.92 95.33)"><filter id="svg_39" width="140%" height="140%" x="-20%" y="-20%"><feGaussianBlur id="svg_40" in="SourceAlpha"/><feOffset id="svg_41" result="oBlur"/><feFlood id="svg_42" flood-color="#F75CFF" flood-opacity="1"/><feComposite id="svg_43" in2="oBlur" operator="in"/><feMerge id="svg_44"><feMergeNode id="svg_45"/><feMergeNode id="svg_46" in="SourceGraphic"/></feMerge></filter><g id="svg_47" filter="url(#svg_1)"><path id="svg_48" fill="#eaf0ff" d="m-249.31,27.68l24.81,-58.25l0.12,0l24.82,58.25l-11.32,0l-4.18,-10l-19.13,0l-4.19,10l-10.93,0zm18.87,-19l11.63,0l-2.44,-5.75q-1,-2.31 -1.84,-4.47q-0.85,-2.15 -1.6,-5.03q-0.69,2.82 -1.5,5q-0.81,2.19 -1.81,4.5l-2.44,5.75z"/><rect id="svg_49" width="49.75" height="58.25" x="-24.88" y="-29.13" fill="none" transform="translate(-223.94 -.94)"/><path id="svg_50" fill="#eaf0ff" d="m-175.69,29q-5.94,0 -10.56,-2.44q-4.63,-2.44 -7.28,-6.97q-2.66,-4.53 -2.66,-10.84l0,-37.32l11.63,0l0,36.75q0,4.57 2.53,7.25q2.53,2.7 6.53,2.7q3.94,0 6.5,-2.59q2.56,-2.6 2.56,-6.97l0,-37.14l11.25,0l0,37.14q0,6.37 -2.62,10.97q-2.63,4.59 -7.22,7.03q-4.6,2.44 -10.66,2.44"/><rect id="svg_51" width="41" height="57.57" x="-20.5" y="-28.79" fill="none" transform="translate(-175.19 .72)"/><path id="svg_52" fill="#eaf0ff" d="m-148.06,-18.43l0,-10.13l39.12,0l0,10.13l-13.75,0l0,46.12l-11.62,0l0,-46.12l-13.75,0z"/><rect id="svg_53" width="39.13" height="56.25" x="-19.57" y="-28.13" fill="none" transform="translate(-128 .06)"/><path id="svg_54" fill="#eaf0ff" d="m-78.81,28.82q-6.19,0 -11.57,-2.28q-5.37,-2.29 -9.46,-6.29q-4.1,-4 -6.41,-9.32q-2.31,-5.31 -2.31,-11.37t2.31,-11.38q2.31,-5.31 6.41,-9.31q4.09,-4 9.46,-6.28q5.38,-2.28 11.57,-2.28q6.18,0 11.56,2.28q5.37,2.28 9.46,6.28q4.1,4 6.41,9.32q2.32,5.32 2.32,11.38q0,6.06 -2.32,11.37q-2.31,5.32 -6.4,9.32q-4.1,4 -9.47,6.28q-5.38,2.28 -11.56,2.28m0,-10.88q5.06,0 9.12,-2.47q4.06,-2.46 6.47,-6.65q2.4,-4.19 2.4,-9.25q0,-5.13 -2.4,-9.28q-2.41,-4.16 -6.47,-6.63q-4.06,-2.47 -9.12,-2.47q-5.07,0 -9.16,2.47q-4.09,2.47 -6.47,6.63q-2.37,4.15 -2.37,9.27q0,5.06 2.37,9.25q2.38,4.19 6.47,6.65q4.09,2.47 9.16,2.47"/><rect id="svg_55" width="59.5" height="58.5" x="-29.75" y="-29.25" fill="none" transform="translate(-78.31 .07)"/><path id="svg_56" fill="#eaf0ff" d="m-39.69,27.68l0,-58.11l26.75,33.25l26.25,-33.25l0,58.11l-10.87,0l0,-16.12q0,-2.75 0.1,-6.19q0.09,-3.44 0.59,-7.87q-1.94,3.25 -3.72,5.62q-1.78,2.38 -3.28,4.38l-9.26,12.37l-9.56,-12.37q-1.44,-1.88 -3.41,-4.54q-1.97,-2.65 -3.78,-5.65q0.5,4.56 0.59,8q0.1,3.44 0.1,6.25l0,16.12l-10.5,0z"/><rect id="svg_57" width="53" height="58.12" x="-26.5" y="-29.06" fill="none" transform="translate(-12.69 -.88)"/><path id="svg_58" fill="#eaf0ff" d="m20.07,27.68l24.81,-58.25l0.13,0l24.8,58.25l-11.31,0l-4.19,-10l-19.12,0l-4.18,10l-10.94,0zm18.87,-19l11.63,0l-2.44,-5.75q-1,-2.31 -1.84,-4.47q-0.85,-2.15 -1.6,-5.03q-0.68,2.82 -1.5,5q-0.81,2.19 -1.81,4.5l-2.44,5.75z"/><rect id="svg_59" width="49.75" height="58.25" x="-24.88" y="-29.13" fill="none" transform="translate(45.44 -.94)"/><path id="svg_60" fill="#eaf0ff" d="m65.69,-18.43l0,-10.13l39.12,0l0,10.13l-13.75,0l0,46.12l-11.62,0l0,-46.12l-13.75,0z"/><rect id="svg_61" width="39.13" height="56.25" x="-19.57" y="-28.13" fill="none" transform="translate(85.75 .06)"/><path id="svg_62" fill="#eaf0ff" d="m113.81,27.68l0,-56.25l11.63,0l0,56.25l-11.63,0z"/><rect id="svg_63" width="11.62" height="56.25" x="-5.81" y="-28.13" fill="none" transform="translate(120.13 .06)"/><path id="svg_64" fill="#eaf0ff" d="m164.94,28.82q-6.19,0 -11.56,-2.28q-5.38,-2.29 -9.47,-6.29q-4.1,-4 -6.41,-9.32q-2.31,-5.31 -2.31,-11.37t2.31,-11.38q2.31,-5.31 6.41,-9.31q4.09,-4 9.47,-6.28q5.37,-2.28 11.56,-2.28q6.19,0 11.56,2.28q5.38,2.28 9.47,6.28q4.09,4 6.41,9.32q2.31,5.32 2.31,11.38q0,6.06 -2.31,11.37q-2.32,5.32 -6.41,9.32q-4.09,4 -9.47,6.28q-5.37,2.28 -11.56,2.28m0,-10.88q5.06,0 9.12,-2.47q4.07,-2.46 6.47,-6.65q2.41,-4.19 2.41,-9.25q0,-5.13 -2.41,-9.28q-2.4,-4.16 -6.47,-6.63q-4.06,-2.47 -9.12,-2.47q-5.06,0 -9.16,2.47q-4.09,2.47 -6.47,6.63q-2.37,4.15 -2.37,9.27q0,5.06 2.37,9.25q2.38,4.19 6.47,6.65q4.1,2.47 9.16,2.47"/><rect id="svg_65" width="59.5" height="58.5" x="-29.75" y="-29.25" fill="none" transform="translate(165.44 .07)"/><path id="svg_66" fill="#eaf0ff" d="m248.31,29.57l-33.75,-33.69l0,31.81l-10.5,0l0,-58.12l33.75,33.62l0,-31.75l10.5,0l0,58.13z"/><rect id="svg_67" width="44.25" height="60" x="-22.13" y="-30" fill="none" transform="translate(226.69 .07)"/></g></g></svg></g></g></svg>