<?xml version="1.0"?>
<svg width="796" height="186" xmlns="http://www.w3.org/2000/svg" xmlns:svg="http://www.w3.org/2000/svg" version="1.1">
 <g class="layer">
  <title>Layer 1</title>
  <g id="svg_31" transform="translate(0 0.1) translate(-2.1 0) translate(128 6) matrix(1 0 0 1 -727.4 -6.1)">
   <svg data-id="lg_q2YLupLETWFLL10B58" data-version="2" height="186" id="svg_32" viewBox="0 0 797 186" width="2000" x="0" xml:space="preserve" y="0">
    <rect fill="transparent" height="100%" id="svg_33" width="100%"/>
    <rect fill="#001f3f" height="155.81" id="svg_34" stroke="#001f3f" stroke-width="8" transform="translate(96.35 93)scale(1.1112)" width="151.36" x="-75.68" y="-77.91"/>
    <path d="m119.77,102.69l-7.96,4.4a33.17,33.17 0 0 1 -16.02,4.14a33.18,33.18 0 0 1 -16.02,-4.14l-9.75,-5.4c0.12,4.53 -0.07,9.34 -1.91,13.17c-0.51,1.05 -1.53,2 -1.51,3.26c0.02,1.74 2.01,2.04 3.44,1.77c0,0 8.43,-1.61 20.1,9.82c1.16,1.14 2.3,2.2 3.87,2.76c3.07,1.09 5.35,-0.79 7.47,-2.78c1.43,-1.35 3.03,-2.53 4.64,-3.67c3.87,-2.73 8.77,-6.16 13.7,-6.24c0,0 6.35,1.38 2.65,-4.51c0,0 -1.69,-5.45 -2.7,-12.58m-62.78,-4.39l-1.85,11.09l0,14.78l7.39,0l0,-14.78l-1.85,-11.09l0,-10.23l-3.69,-2.05l0,12.28z" fill="#eaf0ff" id="svg_35"/>
    <path d="m144.02,75.14l-35.78,-19.82a25.65,25.65 0 0 0 -24.88,0l-35.8,19.82c-2.21,1.23 -2.21,4.43 0,5.66l9.43,5.22l0,-8.05l42.5,0l0,3.69l-38.8,0l0,6.4l22.67,12.56a25.67,25.67 0 0 0 24.87,0l35.79,-19.82c2.22,-1.23 2.22,-4.43 0,-5.66" fill="#eaf0ff" id="svg_36"/>
    <rect fill="none" height="155.81" id="svg_37" stroke="#001f3f" stroke-width="8" transform="translate(492.59 93)scale(1.1112)" width="525.83" x="-262.92" y="-77.91"/>
    <g id="svg_38" transform="translate(494.92 95.33)">
     <filter height="140%" id="svg_39" width="140%" x="-20%" y="-20%">
      <feGaussianBlur in="SourceAlpha"/>
      <feOffset result="oBlur"/>
      <feFlood flood-color="#F75CFF" flood-opacity="1"/>
      <feComposite in2="oBlur" operator="in"/>
      <feMerge>
       <feMergeNode/>
       <feMergeNode in="SourceGraphic"/>
      </feMerge>
     </filter>
     <g filter="url(#svg_1)" id="svg_40">
      <path d="m-249.31,27.68l24.81,-58.25l0.12,0l24.82,58.25l-11.32,0l-4.18,-10l-19.13,0l-4.19,10l-10.93,0zm18.87,-19l11.63,0l-2.44,-5.75q-1,-2.31 -1.84,-4.47q-0.85,-2.15 -1.6,-5.03q-0.69,2.81 -1.5,5t-1.81,4.5l-2.44,5.75z" fill="#001f3f" id="svg_41"/>
      <rect fill="none" height="58.25" id="svg_42" transform="translate(-223.94 -.94)" width="49.75" x="-24.88" y="-29.13"/>
      <path d="m-175.69,29q-5.94,0 -10.56,-2.43q-4.63,-2.44 -7.28,-6.97q-2.66,-4.53 -2.66,-10.85l0,-37.31l11.63,0l0,36.75q0,4.56 2.53,7.25q2.53,2.69 6.53,2.69q3.94,0 6.5,-2.6q2.56,-2.59 2.56,-6.96l0,-37.13l11.25,0l0,37.13q0,6.37 -2.62,10.96q-2.63,4.6 -7.22,7.04q-4.6,2.43 -10.66,2.43" fill="#001f3f" id="svg_43"/>
      <rect fill="none" height="57.56" id="svg_44" transform="translate(-175.19 .71)" width="41" x="-20.5" y="-28.78"/>
      <path d="m-148.06,-18.43l0,-10.13l39.12,0l0,10.13l-13.75,0l0,46.12l-11.62,0l0,-46.12l-13.75,0z" fill="#001f3f" id="svg_45"/>
      <rect fill="none" height="56.25" id="svg_46" transform="translate(-128 .06)" width="39.12" x="-19.56" y="-28.13"/>
      <path d="m-78.81,28.82q-6.19,0 -11.57,-2.29q-5.37,-2.28 -9.46,-6.28q-4.1,-4 -6.41,-9.31q-2.31,-5.31 -2.31,-11.37q0,-6.07 2.31,-11.38q2.31,-5.32 6.41,-9.32q4.09,-4 9.46,-6.28q5.38,-2.28 11.57,-2.28q6.18,0 11.56,2.28q5.37,2.28 9.47,6.28q4.09,4 6.4,9.32q2.32,5.31 2.32,11.38q0,6.06 -2.32,11.37q-2.31,5.31 -6.4,9.31q-4.1,4 -9.47,6.28q-5.38,2.29 -11.56,2.29m0,-10.88q5.06,0 9.12,-2.47t6.47,-6.65q2.41,-4.19 2.41,-9.25q0,-5.13 -2.41,-9.29q-2.41,-4.15 -6.47,-6.62q-4.06,-2.47 -9.12,-2.47q-5.07,0 -9.16,2.47t-6.47,6.62q-2.37,4.16 -2.37,9.29q0,5.06 2.37,9.25q2.38,4.18 6.47,6.65q4.09,2.47 9.16,2.47" fill="#001f3f" id="svg_47"/>
      <rect fill="none" height="58.5" id="svg_48" transform="translate(-78.31 .07)" width="59.5" x="-29.75" y="-29.25"/>
      <path d="m-39.69,27.68l0,-58.11l26.75,33.25l26.25,-33.25l0,58.11l-10.87,0l0,-16.12q0,-2.75 0.09,-6.19q0.09,-3.44 0.59,-7.88q-1.93,3.26 -3.71,5.64q-1.79,2.37 -3.29,4.37l-9.25,12.38l-9.56,-12.39q-1.44,-1.87 -3.4,-4.53q-1.97,-2.65 -3.79,-5.65q0.5,4.56 0.6,8q0.09,3.43 0.09,6.25l0,16.12l-10.5,0z" fill="#001f3f" id="svg_49"/>
      <rect fill="none" height="58.12" id="svg_50" transform="translate(-12.69 -.88)" width="53" x="-26.5" y="-29.06"/>
      <path d="m20.06,27.68l24.81,-58.25l0.13,0l24.81,58.25l-11.31,0l-4.19,-10l-19.12,0l-4.19,10l-10.94,0zm18.88,-19l11.62,0l-2.44,-5.75q-1,-2.31 -1.84,-4.47q-0.84,-2.15 -1.59,-5.03q-0.69,2.81 -1.5,5q-0.82,2.19 -1.82,4.5l-2.43,5.75z" fill="#001f3f" id="svg_51"/>
      <rect fill="none" height="58.25" id="svg_52" transform="translate(45.44 -.94)" width="49.75" x="-24.88" y="-29.13"/>
      <path d="m65.69,-18.43l0,-10.13l39.12,0l0,10.13l-13.75,0l0,46.12l-11.62,0l0,-46.12l-13.75,0z" fill="#001f3f" id="svg_53"/>
      <rect fill="none" height="56.25" id="svg_54" transform="translate(85.75 .06)" width="39.12" x="-19.56" y="-28.13"/>
      <path d="m113.81,27.68l0,-56.25l11.63,0l0,56.25l-11.63,0z" fill="#001f3f" id="svg_55"/>
      <rect fill="none" height="56.25" id="svg_56" transform="translate(120.13 .06)" width="11.63" x="-5.82" y="-28.13"/>
      <path d="m164.94,28.82q-6.19,0 -11.57,-2.29q-5.37,-2.28 -9.46,-6.28q-4.1,-4 -6.41,-9.31q-2.31,-5.31 -2.31,-11.37q0,-6.07 2.31,-11.38q2.31,-5.32 6.41,-9.32q4.09,-4 9.46,-6.28q5.38,-2.28 11.57,-2.28q6.18,0 11.56,2.28q5.37,2.28 9.47,6.28q4.09,4 6.4,9.32q2.32,5.31 2.32,11.38q0,6.06 -2.32,11.37q-2.31,5.31 -6.4,9.31q-4.1,4 -9.47,6.28q-5.38,2.29 -11.56,2.29m0,-10.88q5.06,0 9.12,-2.47t6.47,-6.65q2.41,-4.19 2.41,-9.25q0,-5.13 -2.41,-9.29q-2.41,-4.15 -6.47,-6.62q-4.06,-2.47 -9.12,-2.47q-5.07,0 -9.16,2.47t-6.47,6.62q-2.37,4.16 -2.37,9.29q0,5.06 2.37,9.25q2.38,4.18 6.47,6.65q4.09,2.47 9.16,2.47" fill="#001f3f" id="svg_57"/>
      <rect fill="none" height="58.5" id="svg_58" transform="translate(165.44 .07)" width="59.5" x="-29.75" y="-29.25"/>
      <path d="m248.31,29.57l-33.75,-33.69l0,31.81l-10.5,0l0,-58.12l33.75,33.62l0,-31.75l10.5,0l0,58.13z" fill="#001f3f" id="svg_59"/>
      <rect fill="none" height="60" id="svg_60" transform="translate(226.69 .07)" width="44.25" x="-22.13" y="-30"/>
     </g>
    </g>
   </svg>
  </g>
 </g>
</svg>