<?xml version="1.0"?>
<svg width="670" height="658" xmlns="http://www.w3.org/2000/svg" xmlns:svg="http://www.w3.org/2000/svg" version="1.1">
 <g class="layer">
  <title>Layer 1</title>
  <g id="svg_7" transform="translate(13 0) translate(-12.8 0) translate(0 -0.3) matrix(1 0 0 1 -666.2 0.300024)">
   <svg data-id="lg_q2YLupLETWFLL10B58" data-version="2" height="658" id="svg_8" viewBox="0 0 640 658" width="2000" x="0" xml:space="preserve" y="0">
    <rect fill="transparent" height="100%" id="svg_9" width="100%"/>
    <rect fill="none" height="155.81" id="svg_10" stroke="#001f3f" stroke-width="5" transform="translate(320 329)scale(4.0123)" width="151.36" x="-75.68" y="-77.91"/>
    <path d="m440.06,382.19l-38.73,21.46a161.53,161.53 0 0 1 -78.02,20.16a161.57,161.57 0 0 1 -78.02,-20.16l-47.49,-26.31c0.59,22.04 -0.34,45.46 -9.32,64.15c-2.48,5.1 -7.44,9.72 -7.35,15.85c0.11,8.51 9.79,9.95 16.75,8.65c0,0 41.06,-7.87 97.87,47.81c5.65,5.54 11.21,10.74 18.86,13.45c14.96,5.3 26.08,-3.86 36.36,-13.55c7,-6.58 14.8,-12.29 22.64,-17.85c18.83,-13.3 42.71,-30.02 66.69,-30.42c0,0 30.94,6.75 12.94,-21.94c0,0 -8.24,-26.57 -13.18,-61.3m-305.72,-21.36l-9.02,53.99l0,71.98l36.01,0l0,-71.98l-9.01,-53.99l0,-49.84l-17.98,-9.99l0,59.83z" fill="#001f3f" id="svg_11"/>
    <path d="m558.19,248.04l-174.29,-96.54a124.94,124.94 0 0 0 -121.15,0l-174.32,96.54c-10.79,5.98 -10.79,21.58 0,27.57l45.9,25.41l0,-39.2l206.98,0l0,18l-188.99,0l0,31.17l110.42,61.16a125,125 0 0 0 121.16,0l174.29,-96.54c10.81,-5.99 10.81,-21.58 0,-27.57" fill="#001f3f" id="svg_12"/>
   </svg>
  </g>
 </g>
</svg>